<svg width="137" height="36" viewBox="0 0 137 36" fill="none" xmlns="http://www.w3.org/2000/svg">
<path fill-rule="evenodd" clip-rule="evenodd" d="M0.928022 31.0912L1.074 31.1303C1.02463 31.1205 0.975874 31.1075 0.928022 31.0912V31.0912ZM21.7304 16.2217C22.2779 16.5478 22.6185 16.9782 22.728 17.4217L22.7523 17.5912C22.7036 18.0869 22.3508 18.5825 21.7183 18.9608L2.49732 30.6607C2.10804 30.9086 1.73092 31.0129 1.40246 31.0129C1.06184 31.0129 0.769875 30.8955 0.526572 30.6738L0.453582 30.5955C0.13473 30.1832 -0.0261549 29.6563 0.00347068 29.1216V6.06086C0.00347068 5.35652 0.198113 4.82174 0.526572 4.49565C0.769875 4.27391 1.06184 4.15652 1.40246 4.15652C1.73092 4.15652 2.10804 4.27391 2.49732 4.50869L21.7183 16.2217H21.7304ZM1.3903 4H1.56061H1.3903ZM113.066 30.5564H115.329V14.2521H113.066V30.5564ZM133.504 20.1217L130.9 27.1912H130.827L128.127 20.1217H125.682L129.733 30.0086L127.421 35.4999H129.793L136.034 20.1217H133.504ZM120.633 28.7042C119.891 28.7042 118.857 28.3129 118.857 27.3216C118.857 26.0564 120.146 25.5738 121.253 25.5738C122.263 25.5738 122.725 25.8086 123.334 26.1216C123.251 26.8297 122.932 27.4816 122.436 27.9565C121.939 28.4314 121.298 28.6971 120.633 28.7042ZM120.913 19.7695C119.258 19.7695 117.567 20.5521 116.862 22.2608L118.869 23.1738C119.307 22.2608 120.11 21.9738 120.937 21.9738C122.117 21.9738 123.309 22.7173 123.334 24.0608V24.2303C122.603 23.8156 121.788 23.6005 120.962 23.6043C118.796 23.6043 116.582 24.8825 116.582 27.2695C116.582 29.4608 118.37 30.8694 120.353 30.8694C121.886 30.8694 122.725 30.126 123.261 29.2651H123.334V30.5303H125.523V24.2695C125.523 21.3869 123.504 19.7695 120.901 19.7695H120.913ZM106.874 22.1173H103.651V16.5086H106.874C108.577 16.5086 109.551 18.0217 109.551 19.313C109.551 20.5782 108.577 22.1043 106.874 22.1043V22.1173ZM106.826 14.2521H101.376V30.5564H103.651V24.3738H106.813C109.332 24.3738 111.801 22.4173 111.801 19.313C111.801 16.2086 109.332 14.2521 106.813 14.2521H106.826ZM77.1548 28.7042C75.5977 28.7042 74.2838 27.2955 74.2838 25.3651C74.2838 23.4086 75.5977 21.9738 77.1548 21.9738C78.712 21.9738 79.9285 23.4086 79.9285 25.3651C79.9285 27.2955 78.712 28.7042 77.1548 28.7042ZM79.7703 21.0347H79.6852C79.3393 20.6323 78.9173 20.3136 78.4474 20.0999C77.9775 19.8862 77.4705 19.7825 76.9602 19.7956C75.621 19.8499 74.3543 20.4622 73.4297 21.5023C72.505 22.5424 71.9953 23.9283 72.009 25.3651C71.9987 26.7972 72.5106 28.1768 73.4356 29.21C74.3605 30.2431 75.6253 30.8479 76.9602 30.8955C77.4729 30.9097 77.9823 30.8038 78.4529 30.5853C78.9235 30.3668 79.344 30.0409 79.6852 29.6303H79.7703V30.426C79.7703 32.552 78.712 33.6868 77.0088 33.6868C76.4395 33.6752 75.8864 33.4815 75.4204 33.1305C74.9544 32.7796 74.5968 32.2875 74.3933 31.7173L72.4226 32.5912C72.7939 33.5671 73.4291 34.4016 74.2464 34.9874C75.0637 35.5731 76.0258 35.8833 77.0088 35.8781C79.673 35.8781 81.9236 34.1825 81.9236 30.0999V20.1347H79.7703V21.0477V21.0347ZM83.4929 30.5564H85.7677V14.2521H83.4929V30.5564ZM89.1132 25.1695C89.0885 24.766 89.1392 24.3614 89.2622 23.9792C89.3852 23.597 89.5781 23.245 89.8296 22.9437C90.0811 22.6425 90.3862 22.3981 90.7269 22.2248C91.0676 22.0516 91.4371 21.9529 91.8138 21.9347C92.7262 21.9347 93.4926 22.4173 93.7359 23.1086L89.1132 25.1825V25.1695ZM96.1689 23.3303C95.7432 22.0912 94.4293 19.8086 91.7408 19.8086C89.0767 19.8086 86.8626 22.039 86.8626 25.339C86.8626 28.4564 89.0523 30.8955 91.9963 30.8955C94.3685 30.8955 95.7432 29.3303 96.3149 28.4303L94.551 27.1782C94.2851 27.6482 93.9099 28.0361 93.462 28.3036C93.0141 28.5712 92.509 28.7092 91.9963 28.7042C90.8406 28.7042 90.0134 28.1434 89.4903 27.0216L96.4122 23.9564L96.1689 23.3303V23.3303ZM41.0608 21.5043V23.8521H46.304C46.2283 24.9547 45.8084 25.9977 45.1118 26.8129C44.5847 27.3888 43.9506 27.8396 43.2507 28.1362C42.5508 28.4328 41.8006 28.5685 41.0487 28.5347C40.2863 28.533 39.5318 28.3693 38.8288 28.0529C38.1258 27.7366 37.4883 27.2739 36.9532 26.6916C36.418 26.1094 35.9959 25.4191 35.7112 24.6608C35.4265 23.9025 35.2849 23.0912 35.2946 22.2738C35.2802 21.0601 35.5994 19.8688 36.2123 18.8483C36.8252 17.8278 37.7047 17.0233 38.7412 16.5351C39.7776 16.0469 40.9252 15.8967 42.0407 16.103C43.1563 16.3094 44.1905 16.8633 45.0145 17.6956L46.5595 16.0391C45.8344 15.2702 44.9735 14.6642 44.0273 14.2565C43.081 13.8489 42.0683 13.6479 41.0487 13.6652C38.9079 13.6649 36.853 14.5677 35.3279 16.1785C33.8028 17.7893 32.93 19.9788 32.898 22.2738C32.93 24.5689 33.8028 26.7584 35.3279 28.3692C36.853 29.9799 38.9079 30.8827 41.0487 30.8825C43.4452 30.8825 45.2456 30.0477 46.6568 28.4695C47.9358 26.971 48.617 24.9953 48.5546 22.9651C48.5546 22.4173 48.5181 21.9217 48.4329 21.5043H41.0487H41.0608ZM54.5276 28.7042C52.9583 28.7042 51.608 27.3216 51.608 25.339C51.608 23.3434 52.9583 21.9869 54.5276 21.9869C56.1091 21.9869 57.4473 23.3434 57.4473 25.339C57.4473 27.3216 56.1091 28.7042 54.5276 28.7042V28.7042ZM54.5276 19.7956C53.8444 19.7833 53.1658 19.9181 52.532 20.192C51.8982 20.466 51.3221 20.8734 50.8378 21.3903C50.3534 21.9071 49.9707 22.5229 49.7123 23.2012C49.4538 23.8794 49.3249 24.6064 49.3331 25.339C49.3233 26.0728 49.451 26.8011 49.7087 27.4809C49.9664 28.1607 50.3488 28.778 50.8333 29.2963C51.3178 29.8146 51.8945 30.2232 52.5291 30.4979C53.1637 30.7726 53.8434 30.9078 54.5276 30.8955C55.2119 30.9078 55.8916 30.7726 56.5262 30.4979C57.1608 30.2232 57.7375 29.8146 58.222 29.2963C58.7065 28.778 59.0889 28.1607 59.3466 27.4809C59.6043 26.8011 59.732 26.0728 59.7222 25.339C59.7304 24.6064 59.6015 23.8794 59.343 23.2012C59.0846 22.5229 58.7019 21.9071 58.2175 21.3903C57.7332 20.8734 57.1571 20.466 56.5233 20.192C55.8895 19.9181 55.2109 19.7833 54.5276 19.7956V19.7956ZM65.8656 28.7042C64.2841 28.7042 62.9459 27.3216 62.9459 25.339C62.9459 23.3434 64.2841 21.9869 65.8656 21.9869C67.4227 21.9869 68.7852 23.3434 68.7852 25.339C68.7852 27.3216 67.4227 28.7042 65.8656 28.7042ZM65.8656 19.7956C65.1823 19.7833 64.5037 19.9181 63.8699 20.192C63.2361 20.466 62.66 20.8734 62.1757 21.3903C61.6913 21.9071 61.3086 22.5229 61.0502 23.2012C60.7917 23.8794 60.6628 24.6064 60.6711 25.339C60.6612 26.0728 60.7889 26.8011 61.0466 27.4809C61.3043 28.1607 61.6867 28.778 62.1712 29.2963C62.6557 29.8146 63.2324 30.2232 63.867 30.4979C64.5017 30.7726 65.1813 30.9078 65.8656 30.8955C66.5499 30.9078 67.2295 30.7726 67.8641 30.4979C68.4987 30.2232 69.0754 29.8146 69.5599 29.2963C70.0444 28.778 70.4268 28.1607 70.6845 27.4809C70.9422 26.8011 71.07 26.0728 71.0601 25.339C71.0683 24.6064 70.9394 23.8794 70.6809 23.2012C70.4225 22.5229 70.0398 21.9071 69.5555 21.3903C69.0711 20.8734 68.495 20.466 67.8612 20.192C67.2274 19.9181 66.5488 19.7833 65.8656 19.7956V19.7956Z" fill="white"/>
<path fill-rule="evenodd" clip-rule="evenodd" d="M45.4947 4.70702C45.4947 5.68528 45.2271 6.46788 44.6797 7.05484C44.0714 7.74614 43.2564 8.09831 42.271 8.09831C41.3221 8.09831 40.507 7.74614 39.8379 7.04179C39.5164 6.70204 39.2631 6.29533 39.0937 5.8467C38.9242 5.39807 38.8422 4.91701 38.8526 4.43311C38.8526 3.38964 39.181 2.50268 39.8501 1.79834C40.507 1.09399 41.3099 0.741821 42.271 0.741821C42.7332 0.741821 43.1834 0.846168 43.6091 1.04182C44.0471 1.23747 44.3877 1.49834 44.6432 1.82443L44.0592 2.43747C43.8398 2.16192 43.5647 1.94356 43.2549 1.79892C42.9451 1.65429 42.6086 1.58718 42.271 1.60269C41.5776 1.60269 40.9815 1.86356 40.4705 2.38529C39.9718 2.90703 39.7163 3.58529 39.7163 4.42007C39.7163 5.25484 39.9596 5.9331 40.4705 6.45484C40.9815 6.97658 41.5654 7.23744 42.271 7.23744C43.0009 7.23744 43.6091 6.97658 44.0957 6.45484C44.412 6.10267 44.6067 5.6331 44.6553 5.02006H42.271V4.17224H45.4461C45.4826 4.35485 45.4947 4.53746 45.4947 4.69398" fill="white"/>
<path fill-rule="evenodd" clip-rule="evenodd" d="M45.4945 4.7071H45.385C45.385 5.67232 45.1174 6.40275 44.6065 6.97666C43.9982 7.64187 43.2318 7.981 42.2708 7.981C41.3462 7.981 40.5676 7.64187 39.9229 6.96361C39.6074 6.63389 39.3592 6.23763 39.1938 5.79986C39.0284 5.36208 38.9494 4.89229 38.9618 4.42015C38.9618 3.40276 39.2781 2.56798 39.935 1.87668C40.2394 1.54571 40.6035 1.28478 41.0051 1.10985C41.4067 0.93492 41.8374 0.849663 42.2708 0.859294C42.7209 0.859294 43.1588 0.950597 43.5724 1.14625C43.986 1.3419 44.3023 1.58972 44.5578 1.90277L44.643 1.82451L44.5578 1.74625L43.986 2.35929L44.059 2.43755L44.1442 2.37233C43.6941 1.78538 43.0493 1.48538 42.2708 1.48538C41.5408 1.48538 40.9204 1.75929 40.3973 2.30711C39.8742 2.84189 39.6066 3.55928 39.6066 4.42015C39.6066 5.28101 39.8742 5.98536 40.3973 6.53318C40.9204 7.081 41.553 7.35492 42.2708 7.35492C43.025 7.35492 43.6697 7.081 44.1807 6.53318C44.5213 6.16796 44.7159 5.65927 44.7646 5.03319V4.90275H42.3924V4.28971H45.458V4.17232L45.3485 4.19841C45.385 4.36797 45.3972 4.53754 45.3972 4.7071H45.6162C45.6162 4.52449 45.604 4.34189 45.5675 4.15928L45.5553 4.05493H42.1491V5.13753H44.643V5.02014H44.5213C44.4848 5.6071 44.3023 6.05057 44.0104 6.36362C43.5359 6.87231 42.9642 7.12013 42.2586 7.12013C41.5895 7.12013 41.0177 6.85927 40.5311 6.36362C40.0445 5.86797 39.8012 5.22884 39.8012 4.42015C39.8012 3.61145 40.0445 2.98537 40.5311 2.46363C41.0177 1.96798 41.5895 1.72016 42.2586 1.72016C42.9885 1.72016 43.5481 1.98103 43.9617 2.51581L44.0469 2.62015L44.7038 1.90277L44.7768 1.83755L44.7159 1.74625C44.4245 1.38567 44.0577 1.1041 43.6454 0.92451C43.2106 0.72651 42.7431 0.624481 42.2708 0.624512C41.2975 0.624512 40.446 0.989728 39.7769 1.72016C39.4422 2.06828 39.1777 2.48639 38.9998 2.94858C38.822 3.41077 38.7345 3.90719 38.7429 4.4071C38.7429 5.47666 39.0835 6.3897 39.7769 7.12013C40.1022 7.47269 40.4911 7.7505 40.9199 7.93663C41.3487 8.12276 41.8083 8.2133 42.2708 8.20274C43.2805 8.20274 44.1199 7.83752 44.7524 7.12013L44.6795 7.04187L44.7524 7.13318C45.3242 6.52014 45.604 5.6984 45.604 4.69406H45.4945V4.7071ZM50.5431 1.75929H47.5504V4.00276H50.2511V4.83754H47.5504V7.081H50.5431V7.94187H46.711V0.898424H50.5431V1.75929" fill="white"/>
<path fill-rule="evenodd" clip-rule="evenodd" d="M50.5431 1.75926V1.64187H47.441V4.12012H50.1417V4.72012H47.441V7.19837H50.4336V7.82445H46.8206V1.01579H50.4336V1.75926H50.5431V1.64187V1.77231H50.6526V0.781006H46.6016V8.05923H50.6526V6.96358H47.66V4.9549H50.3607V3.88534H47.66V1.87665H50.6526V1.75926H50.531H50.5431ZM54.0954 7.94184H53.256V1.75926H51.4312V0.898397H55.9323V1.75926H54.1075V7.94184" fill="white"/>
<path fill-rule="evenodd" clip-rule="evenodd" d="M54.0955 7.94184V7.82445H53.3656V1.64187H51.5408V1.01579H55.823V1.64187H53.9982V7.94184H54.0955V7.82445V7.95488H54.2172V1.87665H56.0419V0.781006H51.3097V1.87665H53.1466V8.05923H54.205V7.94184H54.0955V7.94184ZM59.2049 7.94184H60.0564V0.898397H59.2049V7.94184Z" fill="white"/>
<path fill-rule="evenodd" clip-rule="evenodd" d="M59.2047 7.94184H59.3142V1.02883H59.9346V7.82445H59.2047V7.95488H59.3142H59.1925V8.05923H60.1657V0.781006H59.0952V8.05923H59.2047V7.94184ZM63.791 7.94184H62.9394V1.75926H61.1146V0.898397H65.6157V1.75926H63.791V7.94184Z" fill="white"/>
<path fill-rule="evenodd" clip-rule="evenodd" d="M63.7908 7.94189V7.8245H63.0609V1.64192H61.2239V1.01583H65.5061V1.64192H63.6813V7.94189H63.7908V7.8245V7.95493H63.9003V1.8767H65.725V0.781052H61.0049V1.8767H62.8297V8.05928H63.9003V7.94189H63.7786H63.7908ZM69.9707 6.4419C70.4573 6.96363 71.0655 7.2245 71.7589 7.2245C72.4645 7.2245 73.0606 6.96363 73.5472 6.4419C74.0338 5.92016 74.2771 5.2419 74.2771 4.42017C74.2771 3.59843 74.0338 2.93322 73.5472 2.39844C73.0606 1.8767 72.4645 1.61583 71.7589 1.61583C71.0534 1.61583 70.4573 1.8767 69.9707 2.39844C69.4841 2.92017 69.2408 3.59843 69.2408 4.42017C69.2408 5.2419 69.4841 5.92016 69.9707 6.4419ZM74.1677 7.02885C73.5229 7.74624 72.72 8.09841 71.7589 8.09841C70.7979 8.09841 69.995 7.74624 69.3502 7.02885C69.0332 6.68618 68.7837 6.27866 68.6165 5.83051C68.4493 5.38236 68.3679 4.90274 68.377 4.42017C68.3673 3.93866 68.4477 3.45995 68.6136 3.01237C68.7794 2.5648 69.0274 2.15746 69.3427 1.81448C69.6581 1.4715 70.0344 1.19985 70.4495 1.01562C70.8645 0.831387 71.3098 0.738318 71.7589 0.741922C72.2081 0.738318 72.6534 0.831387 73.0684 1.01562C73.4835 1.19985 73.8598 1.4715 74.1751 1.81448C74.4905 2.15746 74.7384 2.5648 74.9043 3.01237C75.0702 3.45995 75.1506 3.93866 75.1409 4.42017C75.1409 5.4506 74.8124 6.32451 74.1677 7.02885Z" fill="white"/>
<path fill-rule="evenodd" clip-rule="evenodd" d="M69.9708 6.44185L69.8979 6.52011C70.4088 7.06794 71.0292 7.35489 71.7591 7.35489C72.489 7.35489 73.1216 7.06794 73.6204 6.52011C74.1313 5.97229 74.3868 5.26794 74.3868 4.43317C74.3868 3.5723 74.1313 2.86796 73.6204 2.32013C73.3806 2.05093 73.0914 1.8378 72.7711 1.69415C72.4508 1.55049 72.1063 1.4794 71.7591 1.48535C71.0292 1.48535 70.4088 1.77231 69.8979 2.32013C69.6445 2.59653 69.4459 2.9251 69.3142 3.28603C69.1825 3.64695 69.1203 4.03274 69.1314 4.42012C69.1314 5.26794 69.3869 5.98533 69.8979 6.52011L70.056 6.36359C69.8212 6.10818 69.6376 5.80407 69.5162 5.4699C69.3949 5.13572 69.3385 4.7785 69.3504 4.42012C69.3504 3.63752 69.5937 2.98535 70.056 2.47665C70.2763 2.23202 70.5412 2.03861 70.8342 1.90846C71.1272 1.77831 71.442 1.71421 71.7591 1.72013C72.4404 1.72013 73 1.981 73.4622 2.47665C73.9367 2.99839 74.1678 3.62447 74.1678 4.43317C74.1678 5.21577 73.9245 5.8549 73.4622 6.36359C73 6.87229 72.4404 7.12011 71.7591 7.12011C71.442 7.12604 71.1272 7.06193 70.8342 6.93178C70.5412 6.80163 70.2763 6.60822 70.056 6.36359L69.9708 6.44185ZM74.1678 7.02881L74.0948 6.95055C73.4622 7.64185 72.6958 7.98098 71.7591 7.99402C71.3253 7.99588 70.8956 7.90456 70.4953 7.72545C70.095 7.54633 69.7321 7.28306 69.4283 6.95116C69.1244 6.61925 68.8856 6.22545 68.7259 5.79298C68.5663 5.36052 68.4891 4.89815 68.4989 4.43317C68.4875 3.9671 68.5634 3.50332 68.7223 3.06933C68.8812 2.63534 69.1197 2.23998 69.4238 1.90668C69.7279 1.57338 70.0912 1.30893 70.4924 1.12901C70.8935 0.949088 71.3243 0.857363 71.7591 0.859269C72.6958 0.859269 73.4622 1.1984 74.0827 1.90274C74.7153 2.59404 75.0316 3.42882 75.0316 4.42012C75.0316 5.42447 74.7153 6.25925 74.0948 6.95055L74.253 7.12011C74.9099 6.38968 75.2505 5.47664 75.2505 4.42012C75.2603 3.9232 75.177 3.42922 75.0056 2.96741C74.8343 2.50559 74.5782 2.08532 74.2527 1.73144C73.9272 1.37756 73.5388 1.09726 73.1105 0.907131C72.6822 0.716999 72.2227 0.620889 71.7591 0.624487C71.2966 0.622637 70.8384 0.720037 70.4115 0.91095C69.9846 1.10186 69.5977 1.38243 69.2734 1.73613C68.9492 2.08983 68.6943 2.50951 68.5237 2.97046C68.353 3.43141 68.2701 3.9243 68.2799 4.42012C68.2799 5.47664 68.6083 6.37664 69.2774 7.12011C69.9343 7.85054 70.7737 8.21576 71.7591 8.21576C72.7445 8.21576 73.5839 7.85054 74.253 7.12011L74.1678 7.02881ZM76.3332 7.94185V0.898399H77.3551L80.5424 6.37664H80.5789L80.5424 5.02012V0.898399H81.3939V7.94185H80.5059L77.1605 2.20274H77.124L77.1605 3.55926V7.94185H76.3211" fill="white"/>
<path fill-rule="evenodd" clip-rule="evenodd" d="M76.333 7.94184H76.4303V1.02883H77.2819L80.4813 6.50707H80.6881L80.6516 5.02012V1.01579H81.2721V7.82445H80.5665L77.2211 2.08535H77.0143L77.0508 3.55925V7.82445H76.3208V7.95488H76.4425H76.3208V8.05923H77.2697V3.55925L77.2332 2.18969H77.1238V2.32013H77.1602V2.18969L77.0751 2.25491L80.4448 8.05923H81.491V0.781006H80.4327V5.02012L80.4692 6.37663H80.5786V6.25924H80.5422V6.38967L80.6395 6.31141L77.4157 0.781006H76.2114V8.05923H76.333V7.94184Z" fill="white"/>
</svg>
